<?xml version="1.0" encoding="UTF-8"?>
<svg id="Ebene_1" xmlns="http://www.w3.org/2000/svg" version="1.1" viewBox="0 0 16 16">
  <!-- Generator: Adobe Illustrator 30.8.0, SVG Export Plug-In . SVG Version: 2.1.4 Build 114)  -->
  <defs>
    <style>
      .st0 {
        fill: #0031ff;
        fill-rule: evenodd;
      }
    </style>
  </defs>
  <path class="st0" d="M15.3,4.2c0-.9-.7-1.6-1.6-1.6H2.3c-.9,0-1.6.7-1.6,1.6v6.8c0,.9.7,1.6,1.6,1.6h3.5l1.9,1.5c.2.1.4.1.6,0l1.9-1.5h3.5c.9,0,1.6-.7,1.6-1.6v-6.8h0ZM4.7,9.1h1.5l.3.9c0,.3.4.4.7.3.3,0,.4-.4.3-.7l-1.6-4.7c0-.2-.3-.4-.5-.4s-.4.1-.5.4l-1.6,4.7c0,.3,0,.6.3.7.3,0,.6,0,.7-.3l.3-.9ZM10.1,5.5h-1c-.3,0-.5.2-.5.5s.2.5.5.5h1c0,.2,0,.5,0,.8,0,.1,0,.2,0,.4-.1.7-.4,1.4-1.2,1.7-.3.1-.4.4-.3.7.1.3.4.4.7.3.6-.3,1.1-.7,1.4-1.2.3.5.7.9,1.4,1.2.3.1.6,0,.7-.3s0-.6-.3-.7c-.8-.3-1.1-1-1.2-1.7,0-.1,0-.2,0-.4,0-.3,0-.6,0-.8h1c.3,0,.5-.2.5-.5s-.2-.5-.5-.5h-1v-.3c0-.3-.2-.5-.5-.5s-.5.2-.5.5v.3h0ZM5,8.1h.8l-.4-1.2-.4,1.2h0Z"/>
</svg>